<svg width="527" height="350" viewBox="0 0 527 350" fill="none" xmlns="http://www.w3.org/2000/svg">
<path d="M166.352 293.836H147.484V327H101.781V293.836H33.4609V259.852L104.711 155.672H147.484V259.266H166.352V293.836ZM101.781 259.266V239.344C101.781 235.594 101.898 230.555 102.133 224.227C102.445 217.82 102.68 214.461 102.836 214.148H101.547C98.8906 220.164 95.8828 225.789 92.5234 231.023L73.5391 259.266H101.781ZM494.008 293.836H475.141V327H429.438V293.836H361.117V259.852L432.367 155.672H475.141V259.266H494.008V293.836ZM429.438 259.266V239.344C429.438 235.594 429.555 230.555 429.789 224.227C430.102 217.82 430.336 214.461 430.492 214.148H429.203C426.547 220.164 423.539 225.789 420.18 231.023L401.195 259.266H429.438Z" fill="#191919"/>
<circle cx="263" cy="240" r="82" fill="#FF5851"/>
<path fill-rule="evenodd" clip-rule="evenodd" d="M294.491 220.509C298.828 219.639 302.599 216.587 304.698 214L309 218.136C306.317 221.441 301.478 225.46 295.531 226.653C289.337 227.895 282.364 225.976 276 218.136L280.302 214C285.417 220.302 290.401 221.329 294.491 220.509Z" fill="#191919"/>
<path fill-rule="evenodd" clip-rule="evenodd" d="M233.81 220.509C237.753 219.639 241.181 216.587 243.09 214L247 218.136C244.561 221.441 240.161 225.46 234.756 226.653C229.125 227.895 222.785 225.976 217 218.136L220.91 214C225.561 220.302 230.092 221.329 233.81 220.509Z" fill="#191919"/>
</svg>
