<svg width="70" height="17" viewBox="0 0 70 17" fill="none" xmlns="http://www.w3.org/2000/svg">
<path d="M32.958 8.918C33.5273 9.07667 33.966 9.36133 34.274 9.772C34.5913 10.1827 34.75 10.696 34.75 11.312C34.75 12.1613 34.456 12.824 33.868 13.3C33.2893 13.7667 32.4773 14 31.432 14H27.148V4.13H31.278C32.2953 4.13 33.0887 4.35867 33.658 4.816C34.2367 5.264 34.526 5.894 34.526 6.706C34.526 7.22867 34.386 7.68133 34.106 8.064C33.8353 8.44667 33.4527 8.73133 32.958 8.918ZM28.562 8.4H31.054C32.4353 8.4 33.126 7.87733 33.126 6.832C33.126 6.30933 32.9533 5.922 32.608 5.67C32.272 5.418 31.754 5.292 31.054 5.292H28.562V8.4ZM31.278 12.838C31.9967 12.838 32.524 12.7073 32.86 12.446C33.196 12.1847 33.364 11.7787 33.364 11.228C33.364 10.668 33.1913 10.2527 32.846 9.982C32.51 9.702 31.9873 9.562 31.278 9.562H28.562V12.838H31.278ZM39.3243 7C40.2389 7 40.9156 7.22867 41.3543 7.686C41.8023 8.14333 42.0263 8.83867 42.0263 9.772V14H40.6683V12.866C40.4909 13.2673 40.2249 13.5753 39.8703 13.79C39.5249 13.9953 39.1189 14.098 38.6523 14.098C38.2043 14.098 37.7936 14.0093 37.4203 13.832C37.0469 13.6453 36.7529 13.3887 36.5383 13.062C36.3329 12.7353 36.2303 12.3713 36.2303 11.97C36.2303 11.4753 36.3563 11.088 36.6083 10.808C36.8696 10.5187 37.2943 10.3133 37.8823 10.192C38.4796 10.0707 39.2963 10.01 40.3323 10.01H40.6543V9.604C40.6543 9.08133 40.5423 8.70333 40.3183 8.47C40.1036 8.23667 39.7489 8.12 39.2543 8.12C38.4796 8.12 37.7049 8.358 36.9303 8.834L36.5103 7.84C36.8743 7.588 37.3129 7.38733 37.8263 7.238C38.3489 7.07933 38.8483 7 39.3243 7ZM38.9043 13.048C39.4176 13.048 39.8376 12.8753 40.1643 12.53C40.4909 12.1753 40.6543 11.7227 40.6543 11.172V10.808H40.4023C39.6743 10.808 39.1143 10.8407 38.7223 10.906C38.3303 10.9713 38.0503 11.0833 37.8823 11.242C37.7143 11.3913 37.6303 11.6107 37.6303 11.9C37.6303 12.2267 37.7469 12.502 37.9803 12.726C38.2229 12.9407 38.5309 13.048 38.9043 13.048ZM46.9565 14.098C46.2658 14.098 45.6638 13.9533 45.1505 13.664C44.6465 13.3747 44.2545 12.9687 43.9745 12.446C43.7038 11.914 43.5685 11.2933 43.5685 10.584C43.5685 9.87467 43.7085 9.24933 43.9885 8.708C44.2778 8.16667 44.6791 7.74667 45.1925 7.448C45.7151 7.14933 46.3218 7 47.0125 7C47.4885 7 47.9458 7.07933 48.3845 7.238C48.8325 7.39667 49.1965 7.61133 49.4765 7.882L49.0425 8.89C48.4265 8.386 47.7871 8.134 47.1245 8.134C46.4711 8.134 45.9578 8.34867 45.5845 8.778C45.2205 9.198 45.0385 9.79533 45.0385 10.57C45.0385 11.3353 45.2205 11.928 45.5845 12.348C45.9485 12.7587 46.4618 12.964 47.1245 12.964C47.7871 12.964 48.4265 12.712 49.0425 12.208L49.4765 13.23C49.1778 13.5007 48.8045 13.7153 48.3565 13.874C47.9085 14.0233 47.4418 14.098 46.9565 14.098ZM57.168 14H55.376L52.142 10.78V14H50.728V4.13H52.142V10.248L55.138 7.182H56.888L53.654 10.458L57.168 14Z" fill="#191919"/>
<path d="M17 8.49902L1.00035 8.49902" stroke="#191919"/>
<path d="M5.26648 3L0.999907 8.5L5.26648 14" stroke="#191919"/>
</svg>
