<svg width="69" height="68" viewBox="0 0 69 68" fill="none" xmlns="http://www.w3.org/2000/svg">
<path d="M62 4L7 4" stroke="#256EFF" stroke-width="4"/>
<path d="M7 4L0 4" stroke="white" stroke-width="8"/>
<path d="M69 4L62 4" stroke="white" stroke-width="8"/>
<path d="M9 34C9 20.1929 20.4167 9 34.5 9C48.5833 9 60 20.1929 60 34" stroke="#256EFF" stroke-width="5"/>
<rect x="47" y="68" width="24" height="8" transform="rotate(-180 47 68)" fill="#256EFF"/>
<path d="M24.9336 60L45.0664 60L48.9825 36.2714C49.0294 35.986 48.9816 35.6936 48.8449 35.4349L36.4684 12L36.4684 39.1971C37.9566 39.7536 39.0139 41.126 39.0139 42.7305C39.0139 44.826 37.2133 46.5307 35 46.5307C32.7866 46.5307 30.986 44.826 30.986 42.7305C30.986 41.126 32.0432 39.7537 33.5316 39.1971L33.5316 12L21.155 35.4349C21.0186 35.6933 20.9705 35.9858 21.0175 36.2714L24.9336 60Z" fill="#256EFF"/>
</svg>
