<svg width="37" height="38" viewBox="0 0 37 38" fill="none" xmlns="http://www.w3.org/2000/svg">
<path d="M34.9578 3.29343e-08H2.04078C1.49937 0.000295217 0.980237 0.221415 0.597537 0.614737C0.214837 1.00806 -9.58523e-05 1.54138 3.20676e-08 2.09742V35.9041C0.000287448 36.4601 0.215588 36.9933 0.598559 37.3863C0.98153 37.7794 1.50082 38.0001 2.04223 38H19.7646V23.3047H14.959V17.5527H19.7646V13.3197C19.7646 8.41158 22.6831 5.73896 26.9464 5.73896C28.9883 5.73896 30.7432 5.8952 31.2549 5.96496V11.0957H28.3148C25.995 11.0957 25.5459 12.2279 25.5459 13.8893V17.5527H31.0919L30.3693 23.3047H25.5459V38H34.9578C35.226 38 35.4916 37.9458 35.7394 37.8404C35.9872 37.7351 36.2123 37.5806 36.402 37.3858C36.5916 37.191 36.742 36.9598 36.8446 36.7053C36.9473 36.4508 37 36.178 37 35.9026V2.09594C36.9997 1.53989 36.7844 1.00673 36.4014 0.613687C36.0185 0.220644 35.4992 -9.84428e-05 34.9578 3.29343e-08Z" fill="#4267B2"/>
</svg>
