<svg width="34" height="27" viewBox="0 0 34 27" fill="none" xmlns="http://www.w3.org/2000/svg">
<path d="M32.1015 4.35449L29.938 26.0794H3.95252L2.20947 4.77495L16.9453 13.0253L32.1015 4.35449Z" fill="#F2F2F2"/>
<path d="M31.3677 0.262207L16.9453 13.8102L2.52295 0.262207H16.9453H31.3677Z" fill="#F2F2F2"/>
<path d="M3.95248 6.51805V26.0795H1.59782C0.715672 26.0795 0 25.3639 0 24.4817V3.63696L2.5815 3.70733L3.95248 6.51805Z" fill="#F14336"/>
<path d="M33.8905 3.63699V24.4818C33.8905 25.3639 33.1748 26.0796 32.2918 26.0796H29.938V6.51807L31.2414 3.43848L33.8905 3.63699Z" fill="#D32E2A"/>
<path d="M33.8905 1.86002V3.63696L29.938 6.51805L16.9452 15.9881L3.95248 6.51805L0 3.63696V1.86002C0 0.977879 0.715672 0.262207 1.59782 0.262207H2.52286L16.9452 10.7741L31.3676 0.262207H32.2918C33.1748 0.262207 33.8905 0.977813 33.8905 1.86002Z" fill="#F14336"/>
<path d="M3.95248 6.51805L0 5.90524V3.63696L3.95248 6.51805Z" fill="#D32E2A"/>
</svg>
