<svg width="127" height="217" viewBox="0 0 127 217" fill="none" xmlns="http://www.w3.org/2000/svg">
<rect x="-13" y="216.385" width="216.384" height="109.081" transform="rotate(-90 -13 216.385)" fill="#F8F8F8"/>
<rect width="60.9095" height="36.3962" transform="matrix(0.987397 -0.158265 0.154563 0.987983 17.782 156.338)" fill="#87F5FB"/>
<path d="M25.5343 164.749L70.7568 157.214" stroke="#593C8F" stroke-width="3"/>
<path d="M26.6555 173.244L54.2852 168.64" stroke="#593C8F" stroke-width="3"/>
<path d="M28.1209 182.505L74.1211 174.544" stroke="#593C8F" stroke-width="3"/>
<rect x="31.3674" y="21.1816" width="96.0865" height="38.5343" transform="rotate(5.57094 31.3674 21.1816)" fill="#593C8F"/>
<rect x="27.3014" y="62.8711" width="96.0865" height="51.9376" transform="rotate(5.57094 27.3014 62.8711)" fill="#FFD23F"/>
<rect x="37.2168" y="73.0709" width="25.4313" height="16.7956" transform="rotate(5.57094 37.2168 73.0709)" stroke="#191919" stroke-width="2"/>
<path d="M40.5189 32.3633L72.9509 35.5267" stroke="white" stroke-width="2"/>
<path d="M40.0243 38.2988L61.6456 40.4077" stroke="white" stroke-width="2"/>
<path d="M72.245 78.5215L100.519 81.2793" stroke="#191919" stroke-width="2"/>
<path d="M71.4478 84.2207L98.0586 86.8163" stroke="#191919" stroke-width="2"/>
<path d="M70.9609 90.1191L89.8103 91.9577" stroke="#191919" stroke-width="2"/>
<path d="M103.562 122.375L105.256 107.494L77.9546 104.832L76.2601 119.712" stroke="#191919" stroke-width="2"/>
<path d="M68.3025 113.957L41.6917 111.361" stroke="#191919" stroke-width="2"/>
<path d="M68.7891 108.062L49.9397 106.224" stroke="#191919" stroke-width="2"/>
<ellipse cx="102.714" cy="47.6857" rx="10.4442" ry="10.4713" transform="rotate(5.57094 102.714 47.6857)" fill="white"/>
<rect x="39.0626" y="46.4355" width="17.5146" height="5.02622" transform="rotate(5.57094 39.0626 46.4355)" fill="white"/>
</svg>
