<svg width="117" height="170" viewBox="0 0 117 170" fill="none" xmlns="http://www.w3.org/2000/svg">
<rect x="49.2499" y="169.639" width="169.639" height="87.0581" transform="rotate(-90 49.2499 169.639)" fill="#F8F8F8"/>
<path d="M133.712 136.582C133.87 137.213 133.392 137.824 132.742 137.824L2.25009 137.824C1.59265 137.824 1.11409 137.201 1.28412 136.566L5.66367 120.208C5.78075 119.771 6.17696 119.467 6.62964 119.467L128.653 119.467C129.111 119.467 129.511 119.779 129.623 120.225L133.712 136.582Z" fill="#FF5851"/>
<path d="M0 26.5156H134.88L129.174 119.538H5.70577L0 26.5156Z" fill="#FF5851"/>
<path d="M13.2769 37.1777H121.603L118.248 111.275H16.6321L13.2769 37.1777Z" fill="#F8F8F8"/>
<path d="M22.1249 48.4863C22.0829 47.9071 22.5415 47.4141 23.1223 47.4141H74.9291C75.4365 47.4141 75.8635 47.7941 75.9223 48.2981L76.5786 53.9179C76.648 54.5121 76.1836 55.0339 75.5854 55.0339H23.5293C23.005 55.0339 22.5697 54.629 22.5319 54.1061L22.1249 48.4863Z" fill="#256EFF"/>
<path d="M22.9793 63.2255C22.9462 62.6516 23.4027 62.168 23.9776 62.168H95.0234C95.5306 62.168 95.9575 62.5477 96.0166 63.0515L96.6758 68.6713C96.7456 69.2656 96.2811 69.7878 95.6826 69.7878H24.3016C23.7716 69.7878 23.3337 69.3744 23.3032 68.8453L22.9793 63.2255Z" fill="#FFD23F"/>
<path d="M23.5916 77.9941C23.5496 77.4149 24.0082 76.9219 24.589 76.9219H76.3957C76.9031 76.9219 77.3301 77.3019 77.389 77.8059L78.0453 83.4257C78.1147 84.0199 77.6503 84.5417 77.052 84.5417H24.9959C24.4717 84.5417 24.0364 84.1368 23.9985 83.6139L23.5916 77.9941Z" fill="#0CCE6B"/>
<path d="M24.5809 93.0353C24.5329 92.4526 24.9929 91.9531 25.5776 91.9531H56.6434C57.1534 91.9531 57.5817 92.3369 57.6374 92.8438L58.2649 98.5506C58.33 99.1426 57.8665 99.6599 57.2709 99.6599H26.0482C25.5277 99.6599 25.0943 99.2608 25.0515 98.7421L24.5809 93.0353Z" fill="#593C8F"/>
<path fill-rule="evenodd" clip-rule="evenodd" d="M112.085 129.856L40.7657 129.856L40.7657 128.4L112.085 128.4L112.085 129.856Z" fill="#191919"/>
<path fill-rule="evenodd" clip-rule="evenodd" d="M131.007 125.491L4.37817 125.491L4.37817 124.035L131.007 124.035L131.007 125.491Z" fill="#191919"/>
<path fill-rule="evenodd" clip-rule="evenodd" d="M71.8164 120.637L5.83362 120.637L5.83362 119.182L71.8164 119.182L71.8164 120.637Z" fill="#191919"/>
<path fill-rule="evenodd" clip-rule="evenodd" d="M117.907 37.1893L117.907 111.42L116.452 111.42L116.452 37.1893L117.907 37.1893Z" fill="#E7E7E7"/>
<path fill-rule="evenodd" clip-rule="evenodd" d="M113.541 37.1893L113.541 111.42L112.085 111.42L112.085 37.1893L113.541 37.1893Z" fill="#E7E7E7"/>
<path fill-rule="evenodd" clip-rule="evenodd" d="M109.174 37.1893L109.174 111.42L107.719 111.42L107.719 37.1893L109.174 37.1893Z" fill="#E7E7E7"/>
<path fill-rule="evenodd" clip-rule="evenodd" d="M104.808 37.1893L104.808 111.42L103.352 111.42L103.352 37.1893L104.808 37.1893Z" fill="#E7E7E7"/>
<path fill-rule="evenodd" clip-rule="evenodd" d="M100.441 37.1893L100.441 111.42L98.9858 111.42L98.9858 37.1893L100.441 37.1893Z" fill="#E7E7E7"/>
</svg>
