<svg width="32" height="32" viewBox="0 0 32 32" fill="none" xmlns="http://www.w3.org/2000/svg">
<path d="M24.8997 31.9831L7.13135 32C3.2223 32.0035 0.0213251 28.8088 0.016883 24.8997L2.96183e-06 7.13135C-0.00355072 3.2223 3.19121 0.0213251 7.10025 0.016883L24.8686 2.96183e-06C28.7777 -0.00355072 31.9787 3.19121 31.9831 7.10025L32 24.8686C32.0044 28.7786 28.8088 31.9796 24.8997 31.9831Z" fill="url(#paint0_radial)"/>
<path d="M24.8997 31.9831L7.13135 32C3.2223 32.0035 0.0213251 28.8088 0.016883 24.8997L2.96183e-06 7.13135C-0.00355072 3.2223 3.19121 0.0213251 7.10025 0.016883L24.8686 2.96183e-06C28.7777 -0.00355072 31.9787 3.19121 31.9831 7.10025L32 24.8686C32.0044 28.7786 28.8088 31.9796 24.8997 31.9831Z" fill="url(#paint1_radial)"/>
<path d="M16.0007 22.2194C12.5723 22.2194 9.78174 19.4297 9.78174 16.0004C9.78174 12.5711 12.5723 9.78149 16.0007 9.78149C19.4291 9.78149 22.2196 12.5711 22.2196 16.0004C22.2196 19.4297 19.4291 22.2194 16.0007 22.2194ZM16.0007 11.5583C13.5513 11.5583 11.5586 13.5511 11.5586 16.0004C11.5586 18.4498 13.5513 20.4425 16.0007 20.4425C18.45 20.4425 20.4428 18.4498 20.4428 16.0004C20.4428 13.5511 18.45 11.5583 16.0007 11.5583Z" fill="white"/>
<path d="M22.6637 10.6699C23.3997 10.6699 23.9963 10.0733 23.9963 9.33727C23.9963 8.60128 23.3997 8.00464 22.6637 8.00464C21.9277 8.00464 21.3311 8.60128 21.3311 9.33727C21.3311 10.0733 21.9277 10.6699 22.6637 10.6699Z" fill="white"/>
<path d="M21.3311 27.5498H10.6701C7.2417 27.5498 4.45117 24.7602 4.45117 21.3309V10.6699C4.45117 7.24057 7.2417 4.45093 10.6701 4.45093H21.3311C24.7596 4.45093 27.5501 7.24057 27.5501 10.6699V21.3309C27.5501 24.7602 24.7596 27.5498 21.3311 27.5498ZM10.6701 6.22777C8.22074 6.22777 6.22801 8.22049 6.22801 10.6699V21.3309C6.22801 23.7803 8.22074 25.773 10.6701 25.773H21.3311C23.7805 25.773 25.7732 23.7803 25.7732 21.3309V10.6699C25.7732 8.22049 23.7805 6.22777 21.3311 6.22777H10.6701Z" fill="white"/>
<defs>
<radialGradient id="paint0_radial" cx="0" cy="0" r="1" gradientUnits="userSpaceOnUse" gradientTransform="translate(11.8959 32.0231) scale(39.8892)">
<stop stop-color="#FFDD55"/>
<stop offset="0.328" stop-color="#FF543F"/>
<stop offset="0.348" stop-color="#FC5245"/>
<stop offset="0.504" stop-color="#E64771"/>
<stop offset="0.643" stop-color="#D53E91"/>
<stop offset="0.761" stop-color="#CC39A4"/>
<stop offset="0.841" stop-color="#C837AB"/>
</radialGradient>
<radialGradient id="paint1_radial" cx="0" cy="0" r="1" gradientUnits="userSpaceOnUse" gradientTransform="translate(5.14928 -0.399517) scale(26.4865 17.6479)">
<stop stop-color="#4168C9"/>
<stop offset="0.999" stop-color="#4168C9" stop-opacity="0"/>
</radialGradient>
</defs>
</svg>
