<svg width="234" height="148" viewBox="0 0 234 148" fill="none" xmlns="http://www.w3.org/2000/svg">
<rect y="40" width="234" height="108" fill="#F8F8F8"/>
<path d="M33 0.889648H197.605L190.642 114.779H39.9632L33 0.889648Z" fill="#0CCE6B"/>
<path d="M49.0156 14.2363H181.59L177.483 99.6532H53.1219L49.0156 14.2363Z" fill="#F8F8F8"/>
<path fill-rule="evenodd" clip-rule="evenodd" d="M191.377 108.55L39.228 108.55L39.228 105.881L191.377 105.881L191.377 108.55Z" fill="white"/>
<path fill-rule="evenodd" clip-rule="evenodd" d="M46.3465 0.000382504L46.3465 114.779L43.6772 114.779L43.6772 0.00038147L46.3465 0.000382504Z" fill="white"/>
<path fill-rule="evenodd" clip-rule="evenodd" d="M179.81 14.2355L179.81 99.6523L177.141 99.6523L177.141 14.2355L179.81 14.2355Z" fill="#E7E7E7"/>
<path fill-rule="evenodd" clip-rule="evenodd" d="M172.692 14.2355L172.692 99.6523L170.023 99.6523L170.023 14.2355L172.692 14.2355Z" fill="#E7E7E7"/>
<path fill-rule="evenodd" clip-rule="evenodd" d="M165.574 14.2355L165.574 99.6523L162.905 99.6523L162.905 14.2355L165.574 14.2355Z" fill="#E7E7E7"/>
<path fill-rule="evenodd" clip-rule="evenodd" d="M157.566 14.2355L157.566 99.6523L155.787 99.6523L155.787 14.2355L157.566 14.2355Z" fill="#E7E7E7"/>
<path d="M61.5338 29.5298C61.5004 28.9557 61.957 28.4717 62.5321 28.4717H126.207C126.723 28.4717 127.155 28.8644 127.203 29.3782L128.101 38.945C128.156 39.5317 127.695 40.0385 127.106 40.0385H63.0893C62.5596 40.0385 62.1218 39.6255 62.091 39.0967L61.5338 29.5298Z" fill="#256EFF"/>
<path d="M62.4106 52.6521C62.384 52.0821 62.839 51.6055 63.4095 51.6055H151.11C151.625 51.6055 152.057 51.9976 152.105 52.511L153.013 62.0778C153.069 62.6648 152.607 63.1723 152.018 63.1723H63.8557C63.3216 63.1723 62.8817 62.7525 62.8568 62.2189L62.4106 52.6521Z" fill="#FFD23F"/>
<path d="M63.3136 75.7974C63.2801 75.2232 63.7367 74.7393 64.3119 74.7393H127.987C128.503 74.7393 128.934 75.132 128.983 75.6457L129.881 85.2126C129.936 85.7993 129.475 86.3061 128.886 86.3061H64.8691C64.3394 86.3061 63.9016 85.8931 63.8708 85.3643L63.3136 75.7974Z" fill="#FF5851"/>
</svg>
