<svg width="211" height="170" viewBox="0 0 211 170" fill="none" xmlns="http://www.w3.org/2000/svg">
<rect x="47" y="170" width="170" height="116" transform="rotate(-90 47 170)" fill="#F8F8F8"/>
<ellipse cx="44.1732" cy="55.13" rx="23.664" ry="24.0734" fill="#FFD23F"/>
<path d="M86.7679 129.76C86.7679 129.76 67.3442 129.76 43.3839 129.76C19.4237 129.76 0 129.76 0 129.76C0 105.385 19.4237 85.625 43.3839 85.625C67.3442 85.625 86.7679 105.385 86.7679 129.76Z" fill="#FFD23F"/>
<ellipse cx="169.545" cy="55.5741" rx="22.6981" ry="23.1815" fill="#593C8F"/>
<path d="M210.401 127.435C210.401 127.435 191.77 127.435 168.788 127.435C145.806 127.435 127.175 127.435 127.175 127.435C127.175 103.963 145.806 84.9355 168.788 84.9355C191.77 84.9355 210.401 103.963 210.401 127.435Z" fill="#593C8F"/>
<ellipse cx="106.182" cy="69.8827" rx="24.6298" ry="24.9648" fill="#FF5851"/>
<path d="M150.516 147.274C150.516 147.274 130.3 147.274 105.362 147.274C80.4235 147.274 60.207 147.274 60.207 147.274C60.207 121.996 80.4235 101.505 105.362 101.505C130.3 101.505 150.516 121.996 150.516 147.274Z" fill="#FF5851"/>
<circle cx="35.3812" cy="48.766" r="2.35876" fill="#FF5851"/>
<circle cx="52.3646" cy="48.766" r="2.35876" fill="#FF5851"/>
<path fill-rule="evenodd" clip-rule="evenodd" d="M96.7163 63.46C95.66 63.6987 94.7198 64.5489 94.1953 65.2771L92.4634 63.4005C93.2227 62.3463 94.5934 61.0577 96.2975 60.6725C98.1011 60.2649 100.106 60.9127 101.898 63.4005L100.167 65.2771C98.8773 63.4872 97.6729 63.2438 96.7163 63.46Z" fill="#191919"/>
<path fill-rule="evenodd" clip-rule="evenodd" d="M115.586 63.46C114.53 63.6987 113.59 64.5489 113.065 65.2771L111.333 63.4005C112.093 62.3463 113.464 61.0577 115.168 60.6725C116.971 60.2649 118.977 60.9127 120.769 63.4005L119.037 65.2771C117.747 63.4872 116.543 63.2438 115.586 63.46Z" fill="#191919"/>
<path fill-rule="evenodd" clip-rule="evenodd" d="M179.835 49.2397C181.075 48.9872 182.153 48.101 182.753 47.35L183.983 48.5507C183.216 49.5103 181.832 50.6769 180.132 51.0231C178.361 51.3838 176.367 50.8267 174.548 48.5507L175.778 47.35C177.24 49.1795 178.665 49.4778 179.835 49.2397Z" fill="white"/>
<path fill-rule="evenodd" clip-rule="evenodd" d="M160.436 49.2397C161.552 48.9872 162.522 48.101 163.063 47.35L164.169 48.5507C163.479 49.5103 162.234 50.6769 160.704 51.0231C159.11 51.3838 157.315 50.8267 155.678 48.5507L156.785 47.35C158.101 49.1795 159.384 49.4778 160.436 49.2397Z" fill="white"/>
<path fill-rule="evenodd" clip-rule="evenodd" d="M68.8757 125.661H0V123.774H68.8757V125.661Z" fill="#FF5851"/>
<path fill-rule="evenodd" clip-rule="evenodd" d="M70.7629 119.057H1.88721V117.17H70.7629V119.057Z" fill="#FF5851"/>
<path fill-rule="evenodd" clip-rule="evenodd" d="M80.1975 112.452H4.71729V110.565H80.1975V112.452Z" fill="#FF5851"/>
<path fill-rule="evenodd" clip-rule="evenodd" d="M78.3106 105.848H7.54785V103.961H78.3106V105.848Z" fill="#FF5851"/>
<path fill-rule="evenodd" clip-rule="evenodd" d="M108.503 147.361L108.503 102.073L110.39 102.073L110.39 147.361L108.503 147.361Z" fill="#191919"/>
<path fill-rule="evenodd" clip-rule="evenodd" d="M115.107 147.362V103.018H116.994V147.362H115.107Z" fill="#191919"/>
<path fill-rule="evenodd" clip-rule="evenodd" d="M121.712 147.362L121.712 104.904L123.599 104.904L123.599 147.362L121.712 147.362Z" fill="#191919"/>
<path fill-rule="evenodd" clip-rule="evenodd" d="M128.317 147.361L128.317 108.678L130.204 108.678L130.204 147.361L128.317 147.361Z" fill="#191919"/>
<path fill-rule="evenodd" clip-rule="evenodd" d="M167.944 95.4694H198.136V97.3564H167.944V95.4694Z" fill="white"/>
<path fill-rule="evenodd" clip-rule="evenodd" d="M133.978 104.904L204.74 104.904V106.791L133.978 106.791V104.904Z" fill="white"/>
<path fill-rule="evenodd" clip-rule="evenodd" d="M152.847 114.34H192.475V116.227H152.847V114.34Z" fill="white"/>
</svg>
