<svg width="217" height="150" viewBox="0 0 217 150" fill="none" xmlns="http://www.w3.org/2000/svg">
<rect x="48" y="150" width="140" height="140" transform="rotate(-90 48 150)" fill="#F8F8F8"/>
<rect width="11.7554" height="34.819" transform="matrix(0.965926 0.258819 -0.259113 0.965847 129.022 97.874)" fill="#593C8F"/>
<path d="M136.807 91.5233L129.012 97.8718L140.383 100.918L136.807 91.5233Z" fill="#593C8F"/>
<path d="M128 36.125H137.375V58.625H128V36.125Z" fill="#87F5FB"/>
<path d="M217 58.625H207.625V36.125H217V58.625Z" fill="#87F5FB"/>
<path d="M135.625 37.375C138.136 25.6566 149.308 2.37833 173.912 3.01271C198.516 3.64709 207.806 26.1852 209.375 37.375" stroke="#87F5FB" stroke-width="6"/>
<path d="M147.72 61.125C145.507 61.1227 143.385 60.351 141.821 58.9791C140.256 57.6072 139.377 55.7473 139.375 53.8075V36.3786C139.375 36.1457 139.481 35.9224 139.669 35.7577C139.857 35.593 140.112 35.5004 140.377 35.5H204.623C204.888 35.5004 205.143 35.593 205.331 35.7577C205.519 35.9224 205.625 36.1457 205.625 36.3786V53.8075C205.623 55.7473 204.744 57.6072 203.179 58.9791C201.615 60.351 199.493 61.1227 197.28 61.125H147.72Z" fill="#256EFF"/>
<path fill-rule="evenodd" clip-rule="evenodd" d="M155.409 43.6889C154.066 43.9925 152.87 45.0739 152.203 46L150 43.6133C150.966 42.2724 152.709 40.6335 154.876 40.1437C157.17 39.6252 159.721 40.4491 162 43.6133L159.797 46C158.158 43.7235 156.626 43.4139 155.409 43.6889Z" fill="#87F5FB"/>
<path fill-rule="evenodd" clip-rule="evenodd" d="M188.409 43.6889C187.066 43.9925 185.87 45.0739 185.203 46L183 43.6133C183.966 42.2724 185.709 40.6335 187.876 40.1437C190.17 39.6252 192.721 40.4491 195 43.6133L192.797 46C191.158 43.7235 189.626 43.4139 188.409 43.6889Z" fill="#87F5FB"/>
<path d="M164.062 62.375H141.25V33H203.75V62.375H179.688" stroke="#256EFF" stroke-width="8"/>
<rect y="56" width="96" height="65" fill="#FFD23F"/>
<path fill-rule="evenodd" clip-rule="evenodd" d="M96 111H39V107H96V111Z" fill="#593C8F"/>
<path fill-rule="evenodd" clip-rule="evenodd" d="M70 99H7V95H70V99Z" fill="#593C8F"/>
<path fill-rule="evenodd" clip-rule="evenodd" d="M96 86H0V82H96V86Z" fill="#593C8F"/>
<path fill-rule="evenodd" clip-rule="evenodd" d="M96 72H34V68H96V72Z" fill="#593C8F"/>
</svg>
