<svg width="29" height="40" viewBox="0 0 29 40" fill="none" xmlns="http://www.w3.org/2000/svg">
<path d="M14.4865 0C6.4986 0 0 6.4986 0 14.4864C0 24.3996 12.964 38.9526 13.516 39.5673C14.0344 40.1447 14.9396 40.1437 15.4571 39.5673C16.009 38.9526 28.973 24.3996 28.973 14.4864C28.9728 6.4986 22.4743 0 14.4865 0ZM14.4865 21.7749C10.4676 21.7749 7.19806 18.5053 7.19806 14.4864C7.19806 10.4675 10.4677 7.19798 14.4865 7.19798C18.5053 7.19798 21.7749 10.4676 21.7749 14.4865C21.7749 18.5054 18.5053 21.7749 14.4865 21.7749Z" fill="#FF5851"/>
</svg>
