<svg width="20" height="28" viewBox="0 0 20 28" fill="none" xmlns="http://www.w3.org/2000/svg">
<path d="M10 0C4.48597 0 0 4.48597 0 9.99994C0 16.843 8.94902 26.8889 9.33003 27.3132C9.68791 27.7118 10.3127 27.7111 10.67 27.3132C11.051 26.8889 20 16.843 20 9.99994C19.9999 4.48597 15.514 0 10 0ZM10 15.0312C7.22575 15.0312 4.9688 12.7742 4.9688 9.99994C4.9688 7.2257 7.22581 4.96875 10 4.96875C12.7742 4.96875 15.0311 7.22575 15.0311 10C15.0311 12.7742 12.7742 15.0312 10 15.0312Z" fill="#FF5851"/>
</svg>
