<svg width="109" height="32" viewBox="0 0 109 32" fill="none" xmlns="http://www.w3.org/2000/svg">
<path d="M7.728 25.168C5.76 25.168 4.144 24.704 2.88 23.776C1.616 22.832 0.936 21.488 0.84 19.744H5.856C5.904 20.336 6.08 20.768 6.384 21.04C6.688 21.312 7.08 21.448 7.56 21.448C7.992 21.448 8.344 21.344 8.616 21.136C8.904 20.912 9.048 20.608 9.048 20.224C9.048 19.728 8.816 19.344 8.352 19.072C7.888 18.8 7.136 18.496 6.096 18.16C4.992 17.792 4.096 17.44 3.408 17.104C2.736 16.752 2.144 16.248 1.632 15.592C1.136 14.92 0.888 14.048 0.888 12.976C0.888 11.888 1.16 10.96 1.704 10.192C2.248 9.408 3 8.816 3.96 8.416C4.92 8.016 6.008 7.816 7.224 7.816C9.192 7.816 10.76 8.28 11.928 9.208C13.112 10.12 13.744 11.408 13.824 13.072H8.712C8.696 12.56 8.536 12.176 8.232 11.92C7.944 11.664 7.568 11.536 7.104 11.536C6.752 11.536 6.464 11.64 6.24 11.848C6.016 12.056 5.904 12.352 5.904 12.736C5.904 13.056 6.024 13.336 6.264 13.576C6.52 13.8 6.832 14 7.2 14.176C7.568 14.336 8.112 14.544 8.832 14.8C9.904 15.168 10.784 15.536 11.472 15.904C12.176 16.256 12.776 16.76 13.272 17.416C13.784 18.056 14.04 18.872 14.04 19.864C14.04 20.872 13.784 21.776 13.272 22.576C12.776 23.376 12.048 24.008 11.088 24.472C10.144 24.936 9.024 25.168 7.728 25.168ZM21.4828 8.08C23.2588 8.08 24.8108 8.44 26.1388 9.16C27.4828 9.864 28.5148 10.856 29.2348 12.136C29.9548 13.416 30.3148 14.88 30.3148 16.528C30.3148 18.16 29.9468 19.616 29.2108 20.896C28.4908 22.176 27.4588 23.184 26.1148 23.92C24.7868 24.64 23.2428 25 21.4828 25H14.7868V8.08H21.4828ZM21.1228 20.848C22.4988 20.848 23.5788 20.472 24.3628 19.72C25.1468 18.968 25.5388 17.904 25.5388 16.528C25.5388 15.136 25.1468 14.064 24.3628 13.312C23.5788 12.544 22.4988 12.16 21.1228 12.16H19.4908V20.848H21.1228ZM37.3792 25.168C35.4112 25.168 33.7952 24.704 32.5312 23.776C31.2672 22.832 30.5872 21.488 30.4912 19.744H35.5072C35.5552 20.336 35.7312 20.768 36.0352 21.04C36.3392 21.312 36.7312 21.448 37.2112 21.448C37.6432 21.448 37.9952 21.344 38.2672 21.136C38.5552 20.912 38.6992 20.608 38.6992 20.224C38.6992 19.728 38.4672 19.344 38.0032 19.072C37.5392 18.8 36.7872 18.496 35.7472 18.16C34.6432 17.792 33.7472 17.44 33.0592 17.104C32.3872 16.752 31.7952 16.248 31.2832 15.592C30.7872 14.92 30.5392 14.048 30.5392 12.976C30.5392 11.888 30.8112 10.96 31.3552 10.192C31.8992 9.408 32.6512 8.816 33.6112 8.416C34.5712 8.016 35.6592 7.816 36.8752 7.816C38.8432 7.816 40.4112 8.28 41.5792 9.208C42.7632 10.12 43.3952 11.408 43.4752 13.072H38.3632C38.3472 12.56 38.1872 12.176 37.8832 11.92C37.5952 11.664 37.2192 11.536 36.7552 11.536C36.4032 11.536 36.1152 11.64 35.8912 11.848C35.6672 12.056 35.5552 12.352 35.5552 12.736C35.5552 13.056 35.6752 13.336 35.9152 13.576C36.1712 13.8 36.4832 14 36.8512 14.176C37.2192 14.336 37.7632 14.544 38.4832 14.8C39.5552 15.168 40.4352 15.536 41.1232 15.904C41.8272 16.256 42.4272 16.76 42.9232 17.416C43.4352 18.056 43.6912 18.872 43.6912 19.864C43.6912 20.872 43.4352 21.776 42.9232 22.576C42.4272 23.376 41.6992 24.008 40.7392 24.472C39.7952 24.936 38.6752 25.168 37.3792 25.168ZM50.4576 18.256C50.4576 16.864 50.7056 15.648 51.2016 14.608C51.7136 13.568 52.4016 12.768 53.2656 12.208C54.1456 11.648 55.1216 11.368 56.1936 11.368C57.1216 11.368 57.9216 11.552 58.5936 11.92C59.2656 12.288 59.7856 12.784 60.1536 13.408V11.536H64.8576V25H60.1536V23.128C59.7856 23.752 59.2576 24.248 58.5696 24.616C57.8976 24.984 57.1056 25.168 56.1936 25.168C55.1216 25.168 54.1456 24.888 53.2656 24.328C52.4016 23.768 51.7136 22.968 51.2016 21.928C50.7056 20.872 50.4576 19.648 50.4576 18.256ZM60.1536 18.256C60.1536 17.392 59.9136 16.712 59.4336 16.216C58.9696 15.72 58.3936 15.472 57.7056 15.472C57.0016 15.472 56.4176 15.72 55.9536 16.216C55.4896 16.696 55.2576 17.376 55.2576 18.256C55.2576 19.12 55.4896 19.808 55.9536 20.32C56.4176 20.816 57.0016 21.064 57.7056 21.064C58.3936 21.064 58.9696 20.816 59.4336 20.32C59.9136 19.824 60.1536 19.136 60.1536 18.256ZM70.8021 13.408C71.1701 12.768 71.6901 12.272 72.3621 11.92C73.0341 11.552 73.8261 11.368 74.7381 11.368C75.8101 11.368 76.7781 11.648 77.6421 12.208C78.5221 12.768 79.2101 13.568 79.7061 14.608C80.2181 15.648 80.4741 16.864 80.4741 18.256C80.4741 19.648 80.2181 20.872 79.7061 21.928C79.2101 22.968 78.5221 23.768 77.6421 24.328C76.7781 24.888 75.8101 25.168 74.7381 25.168C73.8261 25.168 73.0341 24.992 72.3621 24.64C71.6901 24.272 71.1701 23.768 70.8021 23.128V25H66.0981V7.24H70.8021V13.408ZM75.6981 18.256C75.6981 17.376 75.4581 16.696 74.9781 16.216C74.5141 15.72 73.9381 15.472 73.2501 15.472C72.5621 15.472 71.9781 15.72 71.4981 16.216C71.0341 16.712 70.8021 17.392 70.8021 18.256C70.8021 19.136 71.0341 19.824 71.4981 20.32C71.9781 20.816 72.5621 21.064 73.2501 21.064C73.9381 21.064 74.5141 20.816 74.9781 20.32C75.4581 19.808 75.6981 19.12 75.6981 18.256ZM86.7066 25.168C85.4906 25.168 84.4026 24.968 83.4426 24.568C82.4986 24.152 81.7466 23.592 81.1866 22.888C80.6426 22.168 80.3386 21.36 80.2746 20.464H84.8346C84.8986 20.896 85.0986 21.232 85.4346 21.472C85.7706 21.712 86.1866 21.832 86.6826 21.832C87.0666 21.832 87.3706 21.752 87.5946 21.592C87.8186 21.432 87.9306 21.224 87.9306 20.968C87.9306 20.632 87.7466 20.384 87.3786 20.224C87.0106 20.064 86.4026 19.888 85.5546 19.696C84.5946 19.504 83.7946 19.288 83.1546 19.048C82.5146 18.808 81.9546 18.416 81.4746 17.872C81.0106 17.328 80.7786 16.592 80.7786 15.664C80.7786 14.864 80.9946 14.144 81.4266 13.504C81.8586 12.848 82.4906 12.328 83.3226 11.944C84.1706 11.56 85.1866 11.368 86.3706 11.368C88.1306 11.368 89.5146 11.8 90.5226 12.664C91.5306 13.528 92.1146 14.664 92.2746 16.072H88.0266C87.9466 15.64 87.7546 15.312 87.4506 15.088C87.1626 14.848 86.7706 14.728 86.2746 14.728C85.8906 14.728 85.5946 14.8 85.3866 14.944C85.1946 15.088 85.0986 15.288 85.0986 15.544C85.0986 15.864 85.2826 16.112 85.6506 16.288C86.0186 16.448 86.6106 16.616 87.4266 16.792C88.4026 17 89.2106 17.232 89.8506 17.488C90.5066 17.744 91.0746 18.16 91.5546 18.736C92.0506 19.296 92.2986 20.064 92.2986 21.04C92.2986 21.824 92.0666 22.528 91.6026 23.152C91.1546 23.776 90.5066 24.272 89.6586 24.64C88.8266 24.992 87.8426 25.168 86.7066 25.168Z" fill="#0A0F0D"/>
<path d="M47 7V25" stroke="#FF5851" stroke-width="6"/>
<path d="M109 22L93 22" stroke="#FF5851" stroke-width="6"/>
</svg>
