<svg width="24" height="29" viewBox="0 0 24 29" fill="none" xmlns="http://www.w3.org/2000/svg">
<path d="M4.73409 14.445C4.73409 14.01 5.12075 13.7683 5.74909 13.7683C6.54659 13.7683 7.02992 14.2033 7.36825 14.8317L10.4616 13.1642C9.44659 11.4483 7.70659 10.5783 5.74909 10.5783C3.23575 10.5783 1.01242 11.9075 1.01242 14.5417C1.01242 18.7225 6.95742 18.0217 6.95742 19.3508C6.95742 19.8342 6.52242 20.1 5.65242 20.1C4.58909 20.1 3.91242 19.5925 3.59825 18.6742L0.456587 20.4625C1.39909 22.42 3.23575 23.3383 5.65242 23.3383C8.26242 23.3383 10.6791 22.1542 10.6791 19.375C10.6791 14.9042 4.73409 15.8225 4.73409 14.445Z" fill="#191919"/>
<path fill-rule="evenodd" clip-rule="evenodd" d="M24 6V26H15V6H24Z" fill="#FF5851"/>
</svg>
