<svg width="38" height="30" viewBox="0 0 38 30" fill="none" xmlns="http://www.w3.org/2000/svg">
<path d="M4.50607 6.11993C4.55328 5.65605 4.3754 5.19757 4.02708 4.88536L0.478992 0.63492V0H11.4958L20.0112 18.5714L27.4977 0H38V0.63492L34.9664 3.52734C34.7049 3.72558 34.5751 4.05141 34.6293 4.3739V25.6261C34.5751 25.9486 34.7049 26.2744 34.9664 26.4727L37.929 29.3651V30H23.0271V29.3651L26.0962 26.4021C26.3978 26.1023 26.3978 26.0141 26.3978 25.5556V8.37743L17.8646 29.9295H16.7115L6.77684 8.37743V22.8219C6.69401 23.4292 6.89683 24.0406 7.3268 24.4797L11.3184 29.2945V29.9295H0V29.2945L3.9916 24.4797C4.41843 24.0398 4.60942 23.4244 4.50607 22.8219V6.11993Z" fill="#1C1B1A"/>
</svg>
