<svg xmlns="http://www.w3.org/2000/svg" xmlns:xlink="http://www.w3.org/1999/xlink" version="1.1" x="0px" y="0px" viewBox="0 0 7200 9000" enable-background="new 0 0 7200 7200" xml:space="preserve"><path d="M2623.2,2052l-741.8,741.8c-24.6-24.6-110.3,21-191.3,102c-80.8,80.8-126.6,166.7-102,191.3l-184.4,184.4l-392.2-392.2  l184.4-184.4c24.7,24.7,110.7-20.9,191.5-101.8c81-81,126.4-166.8,101.8-191.5L3079,811.7l71.1,71.1  C2385.5,1651.1,2623.2,2052,2623.2,2052z M1650.2,1962.3l69.4,69.4l179.5-179.5l-69.4-69.4L1650.2,1962.3z M2430.6,2383.7  l-179.5,179.5l3416,3416l179.5-179.5L2430.6,2383.7z"/><text x="0" y="7215" fill="#000000" font-size="5px" font-weight="bold" font-family="'Helvetica Neue', Helvetica, Arial-Unicode, Arial, Sans-serif"></text></svg>