<svg xmlns="http://www.w3.org/2000/svg" xmlns:xlink="http://www.w3.org/1999/xlink" version="1.1" x="0px" y="0px" viewBox="0 0 100 125" enable-background="new 0 0 100 100" xml:space="preserve"><polygon fill="#000000" stroke="#FFEC00" points="219.939,-1966.209 160.927,-1926.815 176.272,-1920.012 184.184,-1905.931   190.434,-1914.316 210.604,-1906.722 "/><polyline fill="none" points="190.434,-1914.316 219.939,-1966.209 176.272,-1920.012 "/><path d="M80.313,18.598c-0.501-0.322-1.146-0.315-1.641,0.016L19.661,58.007c-0.455,0.304-0.708,0.831-0.662,1.376  s0.387,1.021,0.887,1.243l14.89,6.602l7.667,13.646c0.249,0.443,0.705,0.729,1.211,0.763c0.032,0.002,0.064,0.003,0.096,0.003  c0.472,0,0.918-0.223,1.203-0.604l5.575-7.479l19.115,7.196c0.421,0.155,0.894,0.12,1.283-0.108c0.39-0.227,0.657-0.617,0.727-1.063  l9.334-59.486C81.08,19.505,80.815,18.918,80.313,18.598z M23.594,58.988l47.564-31.751L35.963,64.473L23.594,58.988z   M48.798,70.857l-4.871,6.534L37.431,65.83l37.111-39.261L48.798,70.857z M68.976,77.295L51.698,70.79l25.272-44.448L68.976,77.295z  "/><text x="0" y="115" fill="#000000" font-size="5px" font-weight="bold" font-family="'Helvetica Neue', Helvetica, Arial-Unicode, Arial, Sans-serif"></text></svg>