<svg xmlns="http://www.w3.org/2000/svg" xmlns:xlink="http://www.w3.org/1999/xlink" version="1.1" x="0px" y="0px" viewBox="0 0 100 125" enable-background="new 0 0 100 100" xml:space="preserve"><g><path d="M91.144,51.648c0.667-11.542-7.452-15.975-12.311-16.803c-1.815-5.557-6.646-6.147-8.059-6.198   c-7.271-8.609-18.909-4.946-21.363-4.042c-5.307-4.934-10.691-1.59-12.075-0.575c-1.829-0.544-9.461-2.331-13.419,4.188   c-1.973,0.358-11.063,2.585-12.697,13.087c-4.337,3.035-6.915,7.923-6.915,13.196c0,4.577,1.973,8.934,5.406,11.997   c1.292,5.715,6.99,10.033,13.807,10.033c3.292,0,6.328-0.997,8.738-2.683c2.67,2.834,6.879,4.52,11.471,4.52   c3.725,0,7.109-1.121,9.646-2.937c2.242,1.356,4.801,2.079,7.44,2.079c4.832,0,9.137-2.39,11.753-6.096   c2.556,2.632,6.045,4.137,9.74,4.137c7.496,0,13.594-6.099,13.594-13.595C95.9,57.836,94.05,54.144,91.144,51.648z M82.307,74.084   c-3.415,0-6.634-1.441-8.931-3.949c0.906-1.625,1.519-3.443,1.737-5.397c0.06-0.535,0.09-1.079,0.09-1.616   c0-0.406-0.328-0.734-0.734-0.734s-0.734,0.328-0.734,0.734c0,0.482-0.028,0.971-0.082,1.452c-0.215,1.921-0.852,3.696-1.798,5.255   c-0.024,0.037-0.048,0.072-0.065,0.112c-2.289,3.687-6.367,6.103-10.976,6.103c-2.189,0-4.317-0.549-6.216-1.592   c1.9-1.744,3.098-3.949,3.291-6.364c0.516-0.054,1.047-0.204,1.596-0.457c-0.027,0.1-0.063,0.202-0.11,0.309   c-0.163,0.371,0.006,0.805,0.377,0.969c0.097,0.042,0.196,0.062,0.296,0.062c0.282,0,0.552-0.164,0.673-0.439   c0.359-0.816,0.385-1.623,0.073-2.334c-0.563-1.29-1.998-1.815-2.16-1.871c-0.383-0.133-0.798,0.07-0.932,0.452   c-0.133,0.382,0.068,0.801,0.45,0.936c0.173,0.062,0.537,0.249,0.851,0.521c-0.777,0.386-1.479,0.51-2.086,0.35   c-0.96-0.253-1.436-1.137-1.449-1.162c-0.183-0.36-0.622-0.505-0.984-0.324c-0.362,0.182-0.51,0.623-0.328,0.986   c0.029,0.059,0.732,1.417,2.272,1.882c-0.181,2.306-1.464,4.391-3.472,5.967c-0.03,0.019-0.054,0.044-0.081,0.067   c-2.318,1.785-5.559,2.901-9.147,2.901c-4.135,0-7.908-1.474-10.307-3.955c2.064-1.806,3.511-4.186,4.004-6.903   c0.072-0.4,0.115-0.804,0.144-1.208c0.496,0.104,1.029,0.31,1.587,0.682c0.125,0.084,0.267,0.124,0.407,0.124   c0.237,0,0.47-0.115,0.612-0.328c0.225-0.338,0.134-0.794-0.204-1.019c-2.755-1.834-5.38-0.775-6.384,0.042   c-0.314,0.256-0.362,0.719-0.105,1.033c0.257,0.315,0.718,0.362,1.034,0.105c0.011-0.009,0.623-0.489,1.584-0.664   c-0.026,0.325-0.064,0.649-0.122,0.971c-0.976,5.379-6.216,9.283-12.459,9.283c-6.956,0-12.615-4.945-12.615-11.024   c0-3.205,1.566-6.168,4.3-8.264c0.688,0.976,1.791,1.883,3.551,2.47c0.077,0.025,0.155,0.038,0.232,0.038   c0.308,0,0.595-0.195,0.697-0.503c0.128-0.385-0.08-0.801-0.465-0.93c-4.417-1.473-3.597-5.333-3.558-5.505   c0.092-0.394-0.152-0.789-0.546-0.882c-0.394-0.092-0.791,0.151-0.884,0.546c-0.007,0.029-0.37,1.67,0.284,3.448   c-3.227,2.382-5.081,5.83-5.081,9.581c0,0.033,0.005,0.064,0.005,0.097c-2.339-2.658-3.664-6.07-3.664-9.634   c0-4.938,2.486-9.513,6.645-12.244l0.075-0.047c2.422-1.574,5.244-2.406,8.16-2.406c0.406,0,0.735-0.329,0.735-0.735   s-0.329-0.735-0.735-0.735c-2.723,0-5.369,0.666-7.737,1.927c2.182-9.391,11.049-10.585,11.527-10.642   c0.042-0.004,2.503-0.199,4.352,1.426c-0.706,0.923-0.672,2-0.67,2.052c0.017,0.395,0.342,0.704,0.734,0.704   c0.01,0,0.021,0,0.031,0c0.406-0.017,0.721-0.36,0.704-0.765c0-0.008-0.008-0.778,0.532-1.28c0.463-0.431,1.223-0.587,2.263-0.47   c0.401,0.052,0.768-0.243,0.813-0.646c0.046-0.403-0.243-0.768-0.646-0.813c-1.021-0.117-1.875-0.002-2.574,0.312   c-1.4-1.349-3.1-1.799-4.274-1.938c3.774-5.02,10.355-3.058,11.384-2.711c0.01,0.005,0.017,0.014,0.028,0.018   c2.791,1.036,4.524,3.053,4.524,5.265c0,0.553-0.109,1.102-0.324,1.629c-0.153,0.376,0.028,0.805,0.404,0.958   c0.091,0.037,0.185,0.054,0.276,0.054c0.29,0,0.565-0.173,0.681-0.458c0.287-0.705,0.432-1.439,0.432-2.183   c0-2.458-1.576-4.69-4.187-6.061c1.786-1.101,5.785-2.737,9.791,1.268l0.353,0.352l0.019-0.008   c0.588,0.558,1.816,1.792,2.581,3.066c0.138,0.23,0.381,0.357,0.631,0.357c0.128,0,0.259-0.034,0.377-0.105   c0.349-0.208,0.461-0.66,0.252-1.008c-0.678-1.13-1.637-2.189-2.333-2.89c1.294-0.431,3.642-1.081,6.377-1.221   c4.989-0.262,9.015,1.231,12.027,4.384c-2.579,0.544-4.816,2.261-5.946,4.708c-0.17,0.369-0.01,0.805,0.359,0.975   c0.1,0.046,0.204,0.068,0.308,0.068c0.277,0,0.543-0.158,0.667-0.427c1.139-2.464,3.626-4.057,6.34-4.057c0,0,0.001,0,0.002,0   c0.092,0,0.179-0.021,0.26-0.052c1.397,0.085,5.202,0.761,6.565,5.58l0.132,0.467l0.481,0.062   c0.497,0.064,11.748,1.666,11.556,14.35c-2.136-1.398-4.683-2.219-7.421-2.219c-0.369,0-0.739,0.038-1.108,0.068   c-0.673-1.599-2.225-2.33-2.295-2.361c-0.367-0.167-0.805-0.002-0.972,0.369c-0.167,0.37-0.002,0.805,0.368,0.971   c0.013,0.006,1.241,0.586,1.624,1.766c0.255,0.784,0.09,1.696-0.49,2.712c-0.202,0.352-0.079,0.801,0.273,1.002   c0.114,0.066,0.24,0.098,0.363,0.098c0.256,0,0.503-0.134,0.639-0.371c0.545-0.954,0.792-1.866,0.782-2.733   c0.272-0.018,0.544-0.05,0.815-0.05c6.686,0,12.125,5.44,12.125,12.125S88.992,74.084,82.307,74.084z"/><path d="M44.676,38.439c0.23,0,0.457-0.108,0.601-0.309c0.098-0.138,2.383-3.216,7.475-1.99c-0.038,0.34-0.057,0.699-0.037,1.087   c0.021,0.393,0.345,0.698,0.733,0.698c0.013,0,0.025,0,0.038-0.001c0.405-0.021,0.717-0.365,0.697-0.771   c-0.101-2,0.823-2.976,1.489-3.423c0.404,1.042,1.128,2.029,2.414,2.575c0.094,0.04,0.191,0.059,0.287,0.059   c0.286,0,0.558-0.168,0.677-0.448c0.158-0.374-0.017-0.805-0.39-0.963c-2.468-1.047-1.954-4.876-1.948-4.915   c0.057-0.401-0.222-0.773-0.623-0.831c-0.396-0.062-0.773,0.219-0.832,0.621c-0.014,0.093-0.154,1.155,0.032,2.417   c-0.771,0.4-1.669,1.194-2.179,2.473c-6.103-1.481-8.917,2.396-9.038,2.568c-0.231,0.332-0.15,0.786,0.18,1.019   C44.382,38.396,44.529,38.439,44.676,38.439z"/><path d="M30.698,48.369c0.079,0,0.159-0.013,0.237-0.039c0.384-0.13,0.589-0.547,0.46-0.931c-0.007-0.021-0.701-2.139,0.367-3.704   c0.764-1.119,2.273-1.741,4.484-1.848c0.405-0.02,0.718-0.364,0.698-0.77c-0.02-0.405-0.355-0.709-0.77-0.698   c-1.28,0.062-2.374,0.289-3.286,0.667c-3.013-2.258-1.358-5.241-1.149-5.589c0.211-0.346,0.103-0.797-0.243-1.009   c-0.345-0.211-0.798-0.104-1.011,0.242c-0.903,1.472-1.705,4.694,1.037,7.14c-0.271,0.214-0.506,0.457-0.72,0.717   c-1.755-1.338-4.017-1.307-5.362-1.125c0.253-1.891-0.319-3.05-0.358-3.126c-0.185-0.358-0.62-0.497-0.981-0.315   c-0.36,0.181-0.505,0.622-0.328,0.983c0.046,0.096,1.114,2.379-1.328,5.962c-0.229,0.335-0.143,0.792,0.193,1.021   c0.127,0.086,0.271,0.128,0.414,0.128c0.235,0,0.465-0.112,0.607-0.321c0.687-1.007,1.127-1.936,1.411-2.778   c0.921-0.185,3.366-0.503,4.982,0.848c-0.748,1.945-0.082,3.952-0.047,4.05C30.109,48.178,30.393,48.369,30.698,48.369z"/><path d="M68.996,58.732c0.336,0.234,0.792,0.149,1.023-0.182c0.232-0.333,0.15-0.791-0.182-1.023   c-2.584-1.803-4.837-2.397-6.729-2.37c1.013-2.002,2.673-6.445,0.135-10.549c-0.213-0.345-0.664-0.451-1.012-0.238   c-0.345,0.213-0.452,0.667-0.238,1.012c2.729,4.411-0.425,9.577-0.695,10.002c-2.356,0.57-3.924,2.048-4.56,2.759   c-2.562-0.498-4.493,0.469-5.852,1.848c-0.001,0-0.001,0-0.002,0.001c-0.015,0.013-1.584,1.225-3.688,0.872   c-0.396-0.063-0.778,0.203-0.846,0.604s0.203,0.779,0.604,0.846c0.35,0.059,0.688,0.084,1.013,0.084   c0.467,0,0.897-0.061,1.297-0.146c-0.301,0.583-0.526,1.15-0.67,1.644c-0.114,0.39,0.11,0.798,0.5,0.911   c0.068,0.021,0.138,0.03,0.206,0.03c0.318,0,0.611-0.209,0.705-0.529c0.071-0.242,1.788-5.91,6.831-4.638l0.486,0.122l0.292-0.406   C57.782,59.149,61.816,53.724,68.996,58.732z"/><path d="M40.917,52.961c0.22,0,0.438-0.098,0.583-0.284c0.122-0.156,0.537-0.636,1.154-0.831c0.057-0.009,0.111-0.021,0.166-0.043   c0.475-0.104,1.05-0.031,1.696,0.46l0.479,0.361l0.451-0.395c0.145-0.128,3.608-3.08,7.279,0.353   c0.296,0.275,0.761,0.261,1.039-0.035c0.276-0.297,0.261-0.762-0.035-1.039c-0.276-0.259-0.553-0.48-0.828-0.683   c0.217-0.683,0.749-1.992,1.822-2.663c0.647-0.404,1.401-0.507,2.276-0.346c0.294,1.037,0.602,1.727,0.636,1.802   c0.124,0.269,0.39,0.428,0.668,0.428c0.103,0,0.206-0.021,0.306-0.067c0.368-0.169,0.531-0.604,0.362-0.974   c-0.021-0.045-2.03-4.533-0.425-8.038c0.812-1.77,2.437-3.021,4.83-3.719c0.39-0.114,0.614-0.521,0.5-0.911   c-0.112-0.388-0.517-0.612-0.91-0.5c-2.826,0.823-4.764,2.346-5.759,4.525c-0.173,0.377-0.301,0.763-0.409,1.149   c-1.318-0.132-4.887-0.297-7.222,1.4c-0.394,0.204-1.572,0.659-2.26,0.307c-0.363-0.184-0.805-0.041-0.989,0.321   c-0.184,0.362-0.041,0.804,0.321,0.989c0.417,0.212,0.865,0.291,1.3,0.291c0.01,0,0.021-0.001,0.031-0.001   c-0.215,0.449-0.363,0.952-0.321,1.492c0.03,0.385,0.352,0.677,0.731,0.677c0.02,0,0.039-0.001,0.059-0.002   c0.405-0.032,0.707-0.386,0.675-0.79c-0.052-0.655,0.568-1.411,0.964-1.801c1.771-1.642,5.104-1.544,6.431-1.43   c-0.128,1.171-0.042,2.313,0.133,3.315c-0.997-0.074-1.906,0.135-2.707,0.636c-1.305,0.816-1.997,2.204-2.333,3.13   c-2.99-1.389-5.638,0.028-6.674,0.734c-0.659-0.381-1.349-0.515-2.031-0.449c-2.992-4.494-0.706-7.622-0.602-7.758   c0.247-0.32,0.189-0.779-0.129-1.028c-0.32-0.25-0.782-0.193-1.031,0.127c-0.128,0.164-2.944,3.909,0.323,9.14   c-0.671,0.407-1.085,0.908-1.134,0.973c-0.245,0.321-0.182,0.778,0.138,1.025C40.604,52.911,40.761,52.961,40.917,52.961z"/><path d="M25.901,63.221c0.036-7.383-5.947-8.647-6.009-8.66c-0.402-0.076-0.781,0.183-0.859,0.579   c-0.079,0.397,0.18,0.783,0.577,0.863c0.196,0.04,4.577,1.005,4.819,6.654c-0.885-0.23-1.537-0.231-1.566-0.231   c-0.406,0.007-0.729,0.341-0.723,0.746c0.007,0.406,0.321,0.73,0.747,0.723c0.187-0.002,4.899-0.017,5.226,5.828   c0.022,0.392,0.346,0.694,0.733,0.694c0.014,0,0.027-0.001,0.042-0.002c0.405-0.022,0.715-0.369,0.693-0.774   C29.371,65.872,27.581,64.081,25.901,63.221z"/><path d="M35.425,46.336c-0.375,0.155-0.554,0.584-0.399,0.959c0.012,0.029,1.193,2.951-0.048,5.089   c-0.716,1.232-2.14,1.993-4.234,2.261c-0.402,0.051-0.687,0.419-0.636,0.821c0.047,0.371,0.364,0.643,0.728,0.643   c0.031,0,0.062-0.002,0.094-0.007c0.106-0.014,0.204-0.035,0.307-0.051c-0.135,1.063-0.055,2.681,1.111,4.338   c0.143,0.203,0.371,0.312,0.602,0.312c0.146,0,0.294-0.044,0.422-0.135c0.332-0.233,0.412-0.691,0.178-1.023   c-1.154-1.641-0.927-3.197-0.757-3.844c1.588-0.502,2.749-1.362,3.454-2.577c1.602-2.758,0.197-6.241,0.136-6.388   C36.23,46.36,35.802,46.181,35.425,46.336z"/><path d="M49.005,64.819c-0.406-0.064-0.776,0.216-0.836,0.617c-0.314,2.083-1.105,3.489-2.35,4.178   c-2.152,1.19-5.066-0.052-5.095-0.063c-0.374-0.164-0.805,0.007-0.967,0.379c-0.162,0.371,0.006,0.804,0.377,0.967   c0.096,0.042,1.635,0.704,3.475,0.704c0.943,0,1.966-0.174,2.913-0.695c1.67-0.921,2.713-2.687,3.1-5.25   C49.683,65.254,49.406,64.88,49.005,64.819z"/><path d="M70.656,49.531c-0.815-0.425-1.097-1.075-1.115-1.121c-0.142-0.376-0.558-0.571-0.938-0.432   c-0.382,0.139-0.578,0.56-0.439,0.941c0.027,0.075,0.69,1.833,2.934,2.324c0.375,0.082,0.772,0.122,1.19,0.122   c0.788,0,1.648-0.145,2.573-0.435c0.388-0.121,0.603-0.534,0.481-0.921c-0.121-0.386-0.53-0.604-0.921-0.481   c-0.865,0.271-1.643,0.391-2.326,0.363c1.039-5.983,8.335-5.562,8.66-5.542c0.405,0.042,0.756-0.276,0.784-0.681   c0.028-0.404-0.275-0.755-0.68-0.785C77.698,42.652,71.715,43.802,70.656,49.531z"/><path d="M66.138,43.021c0.082,0.029,0.165,0.043,0.248,0.043c0.301,0,0.583-0.187,0.691-0.485c0.008-0.021,0.758-2.037,2.591-2.854   c1.015-0.453,2.204-0.438,3.526-0.009c-0.095,0.266-0.244,0.536-0.456,0.812c-0.248,0.322-0.188,0.783,0.134,1.031   c0.134,0.103,0.291,0.152,0.447,0.152c0.221,0,0.438-0.099,0.583-0.287c0.694-0.903,0.982-1.833,0.854-2.764   c-0.194-1.422-1.316-2.278-1.364-2.313c-0.324-0.245-0.785-0.178-1.028,0.147c-0.243,0.325-0.178,0.785,0.147,1.029   c0.004,0.003,0.285,0.226,0.515,0.6c-1.444-0.355-2.778-0.271-3.973,0.268c-2.407,1.083-3.322,3.589-3.36,3.695   C65.558,42.466,65.757,42.884,66.138,43.021z"/><path d="M87.347,59.038c-0.364,0.179-0.515,0.619-0.335,0.983c0.009,0.02,0.932,1.935,0.24,3.833   c-0.383,1.052-1.229,1.9-2.472,2.553c-0.174-0.286-0.299-0.635-0.36-1.06c-0.058-0.402-0.44-0.678-0.832-0.623   c-0.402,0.059-0.681,0.431-0.623,0.832c0.135,0.94,0.494,1.678,1.044,2.225c0.056,0.074,0.121,0.137,0.198,0.184   c0.049,0.041,0.089,0.092,0.142,0.131c0.768,0.567,1.642,0.666,2.159,0.666c0.261,0,0.431-0.024,0.45-0.028   c0.401-0.062,0.676-0.438,0.612-0.839c-0.062-0.401-0.442-0.682-0.839-0.612c-0.005,0-0.212,0.027-0.499-0.002   c1.168-0.771,1.974-1.75,2.401-2.923c0.902-2.48-0.254-4.883-0.304-4.984C88.151,59.01,87.714,58.856,87.347,59.038z"/><path d="M84.354,55.238c-0.126-0.384-0.533-0.598-0.921-0.47c-0.385,0.122-0.598,0.534-0.479,0.92   c0.024,0.082,0.368,1.289-0.401,2.613c-1.757-1.44-5.161-2.043-8.037-0.649c-2.735,1.326-3.472,4.288-3.659,5.455   c-0.726,0.219-2.415,0.469-3.812-1.222c-2.507-3.025-6.437-1.661-6.602-1.6c-0.382,0.137-0.579,0.556-0.443,0.938   c0.137,0.381,0.555,0.581,0.938,0.446c0.126-0.045,3.134-1.071,4.975,1.153c1.213,1.466,2.677,1.91,3.907,1.91   c0.834,0,1.562-0.204,2.031-0.432l0.381-0.186l0.031-0.422c0.003-0.034,0.293-3.458,2.895-4.72c2.422-1.172,5.186-0.556,6.44,0.452   c-0.554,0.479-1.3,0.937-2.333,1.322c-0.38,0.142-0.573,0.565-0.432,0.945c0.11,0.296,0.391,0.479,0.688,0.479   c0.085,0,0.172-0.016,0.257-0.047C85.788,59.883,84.368,55.284,84.354,55.238z"/><path d="M16.712,45.812c-1.005,0.878-1.708,2.115-2.09,3.677c-0.096,0.394,0.145,0.792,0.54,0.888   c0.059,0.014,0.117,0.021,0.175,0.021c0.331,0,0.631-0.225,0.713-0.561c0.309-1.262,0.856-2.244,1.629-2.918   c0.306-0.267,0.337-0.731,0.07-1.037C17.482,45.576,17.018,45.544,16.712,45.812z"/></g><text x="0" y="115" fill="#000000" font-size="5px" font-weight="bold" font-family="'Helvetica Neue', Helvetica, Arial-Unicode, Arial, Sans-serif"></text></svg>