<?xml version="1.0" encoding="UTF-8" standalone="no"?><!-- Generator: Gravit.io --><svg xmlns="http://www.w3.org/2000/svg" xmlns:xlink="http://www.w3.org/1999/xlink" style="isolation:isolate" viewBox="0 0 615.5 615.5" width="615.5pt" height="615.5pt"><defs><clipPath id="_clipPath_7eCfRBNtqbSDAVr8Hq9ghOcFDTsNSwSl"><rect width="615.5" height="615.5"/></clipPath></defs><g clip-path="url(#_clipPath_7eCfRBNtqbSDAVr8Hq9ghOcFDTsNSwSl)"><clipPath id="_clipPath_MgcVtVHJTzC7HvJKchiALOTcxSYROmL9"><path d=" M 0 0 L 615.5 0 L 615.5 615.5 L 0 615.5 L 0 0 Z " fill="rgb(255,255,255)"/></clipPath><g clip-path="url(#_clipPath_MgcVtVHJTzC7HvJKchiALOTcxSYROmL9)"><g opacity="0.869995"><path d=" M 430.985 414.19 C 372.173 449.79 325.891 409.302 291.448 399.984 C 288.219 399.929 284.87 399.888 281.425 399.855 C 311.186 417.896 346.891 456.328 405.476 433.216 C 457.378 411.581 484.29 382.983 492.838 352.724 C 482.159 373.538 462.276 394.41 430.985 414.19 Z " fill="rgb(163,51,51)"/></g><g opacity="0.869995"><path d=" M 183.552 212.536 C 210.354 194.336 240.877 184.171 272.169 180.46 C 282.01 178.411 291.977 176.968 301.973 176.098 C 269.9 173.881 237.147 178.589 206.557 192.522 C 133.198 225.933 112.096 257.618 112.489 283.245 C 121.865 263.414 143.223 239.923 183.552 212.536 Z " fill="rgb(163,51,51)"/></g><path d=" M 112.489 283.245 C 104.394 300.368 105.234 314.759 110.52 326.566 C 111.13 319.367 113.138 311.406 116.912 302.611 C 114.271 296.655 112.595 290.171 112.489 283.245 Z " fill="rgb(241,138,139)"/><g opacity="0.869995"><path d=" M 170.81 232.147 C 199.003 204.883 234.657 188.271 272.169 180.46 C 240.877 184.17 210.354 194.335 183.552 212.537 C 143.223 239.922 121.866 263.415 112.49 283.246 C 112.596 290.172 114.272 296.655 116.913 302.611 C 125.165 283.376 141.856 260.147 170.81 232.147 Z " fill="rgb(39,81,248)"/></g><path d=" M 170.81 232.147 C 199.003 204.883 234.657 188.271 272.169 180.46 C 240.877 184.17 210.354 194.335 183.552 212.537 C 143.223 239.922 121.866 263.415 112.49 283.246 C 112.596 290.172 114.272 296.655 116.913 302.611 C 125.165 283.376 141.856 260.147 170.81 232.147 Z " fill="rgb(210,65,66)"/><g opacity="0.869995"><path d=" M 454.37 391.316 C 400.899 437.824 346.102 402.718 310.027 400.6 C 304.615 400.283 298.313 400.1 291.448 399.983 C 325.891 409.301 372.174 449.789 430.985 414.189 C 462.276 394.409 482.159 373.537 492.838 352.723 C 493.798 349.328 494.525 345.912 495.031 342.482 C 486.173 358.229 472.861 374.584 454.37 391.316 Z " fill="rgb(39,81,248)"/></g><path d=" M 454.37 391.316 C 400.899 437.824 346.102 402.718 310.027 400.6 C 304.615 400.283 298.313 400.1 291.448 399.983 C 325.891 409.301 372.174 449.789 430.985 414.189 C 462.276 394.409 482.159 373.537 492.838 352.723 C 493.798 349.328 494.525 345.912 495.031 342.482 C 486.173 358.229 472.861 374.584 454.37 391.316 Z " fill="rgb(210,65,66)"/><path d=" M 500.753 331.023 C 542.222 235.713 420.21 165.812 301.973 176.098 C 314.77 176.983 327.459 178.967 339.858 181.914 C 434.279 196.561 516.04 261.151 500.753 331.023 Z " fill="rgb(238,109,110)"/><path d=" M 166.887 371.348 C 163.879 369.66 160.795 368.111 157.61 366.749 C 146.111 361.837 120.46 348.769 110.521 326.567 C 106.796 370.577 155.366 386.17 172.828 390.334 C 176.256 391.152 179.616 392.174 182.925 393.348 C 201.46 399.924 246.221 399.513 281.426 399.855 C 279.457 398.66 277.514 397.557 275.592 396.565 C 240.492 389.771 186.18 382.177 166.887 371.348 Z " fill="rgb(238,109,110)"/><g opacity="0.869995"><path d=" M 339.858 181.915 C 327.459 178.968 314.769 176.984 301.972 176.099 C 291.976 176.969 282.009 178.412 272.169 180.461 C 294.701 177.789 317.629 178.466 339.858 181.915 Z " fill="rgb(174,77,77)"/></g><g opacity="0.869995"><path d=" M 289.103 399.389 C 285.08 398.459 280.525 397.52 275.592 396.565 C 277.514 397.557 279.457 398.66 281.426 399.855 C 284.871 399.888 288.22 399.929 291.449 399.984 C 290.662 399.771 289.878 399.569 289.103 399.389 Z " fill="rgb(39,81,248)"/></g><path d=" M 289.103 399.389 C 285.08 398.459 280.525 397.52 275.592 396.565 C 277.514 397.557 279.457 398.66 281.426 399.855 C 284.871 399.888 288.22 399.929 291.449 399.984 C 290.662 399.771 289.878 399.569 289.103 399.389 Z " fill="rgb(175,77,77)"/><g opacity="0.690002"><path d=" M 157.609 366.749 C 160.795 368.11 163.879 369.659 166.886 371.348 C 186.179 382.177 240.492 389.77 275.591 396.564 C 274.222 395.858 272.863 395.205 271.513 394.622 C 241.505 381.657 177.929 362.2 159.138 346.299 C 156.569 344.125 153.9 342.076 151.094 340.195 C 142.463 334.408 125.079 321.036 116.912 302.611 C 113.138 311.406 111.13 319.367 110.52 326.566 C 120.46 348.769 146.11 361.837 157.609 366.749 Z " fill="rgb(98,205,255)"/></g><path d=" M 157.609 366.749 C 160.795 368.11 163.879 369.659 166.886 371.348 C 186.179 382.177 240.492 389.77 275.591 396.564 C 274.222 395.858 272.863 395.205 271.513 394.622 C 241.505 381.657 177.929 362.2 159.138 346.299 C 156.569 344.125 153.9 342.076 151.094 340.195 C 142.463 334.408 125.079 321.036 116.912 302.611 C 113.138 311.406 111.13 319.367 110.52 326.566 C 120.46 348.769 146.11 361.837 157.609 366.749 Z " fill="rgb(236,91,92)"/><g opacity="0.869995"><path d=" M 454.37 391.316 C 472.861 374.584 486.173 358.229 495.031 342.482 C 504.91 275.478 430.034 203.348 339.858 181.914 C 317.629 178.465 294.701 177.788 272.169 180.46 C 234.656 188.271 199.003 204.882 170.809 232.147 C 141.855 260.148 125.165 283.375 116.912 302.61 C 125.079 321.035 142.464 334.408 151.095 340.195 C 153.9 342.076 156.569 344.125 159.139 346.298 C 177.93 362.2 241.505 381.657 271.514 394.622 C 272.863 395.205 274.223 395.858 275.592 396.564 C 280.524 397.519 285.079 398.459 289.102 399.388 C 289.878 399.568 290.661 399.77 291.448 399.983 C 298.313 400.1 304.615 400.283 310.027 400.6 C 346.102 402.718 400.899 437.824 454.37 391.316 Z " fill="rgb(39,81,248)"/></g><g opacity="0.690002"><path d=" M 454.37 391.316 C 472.861 374.584 486.173 358.229 495.031 342.482 C 504.91 275.478 430.034 203.348 339.858 181.914 C 317.629 178.465 294.701 177.788 272.169 180.46 C 234.656 188.271 199.003 204.882 170.809 232.147 C 141.855 260.148 125.165 283.375 116.912 302.61 C 125.079 321.035 142.464 334.408 151.095 340.195 C 153.9 342.076 156.569 344.125 159.139 346.298 C 177.93 362.2 241.505 381.657 271.514 394.622 C 272.863 395.205 274.223 395.858 275.592 396.564 C 280.524 397.519 285.079 398.459 289.102 399.388 C 289.878 399.568 290.661 399.77 291.448 399.983 C 298.313 400.1 304.615 400.283 310.027 400.6 C 346.102 402.718 400.899 437.824 454.37 391.316 Z " fill="rgb(98,205,255)"/></g><path d=" M 454.37 391.316 C 472.861 374.584 486.173 358.229 495.031 342.482 C 504.91 275.478 430.034 203.348 339.858 181.914 C 317.629 178.465 294.701 177.788 272.169 180.46 C 234.656 188.271 199.003 204.882 170.809 232.147 C 141.855 260.148 125.165 283.375 116.912 302.61 C 125.079 321.035 142.464 334.408 151.095 340.195 C 153.9 342.076 156.569 344.125 159.139 346.298 C 177.93 362.2 241.505 381.657 271.514 394.622 C 272.863 395.205 274.223 395.858 275.592 396.564 C 280.524 397.519 285.079 398.459 289.102 399.388 C 289.878 399.568 290.661 399.77 291.448 399.983 C 298.313 400.1 304.615 400.283 310.027 400.6 C 346.102 402.718 400.899 437.824 454.37 391.316 Z " fill="rgb(234,73,74)"/><path d=" M 492.838 352.724 C 496.562 345.467 499.179 338.217 500.753 331.024 C 499.109 334.804 497.201 338.625 495.031 342.483 C 494.525 345.912 493.798 349.328 492.838 352.724 Z " fill="rgb(241,138,139)"/><g opacity="0.690002"><path d=" M 339.858 181.915 C 430.034 203.349 504.91 275.478 495.031 342.483 C 497.201 338.625 499.108 334.804 500.753 331.024 C 516.04 261.152 434.279 196.562 339.858 181.915 Z " fill="rgb(98,205,255)"/></g><path d=" M 339.858 181.915 C 430.034 203.349 504.91 275.478 495.031 342.483 C 497.201 338.625 499.108 334.804 500.753 331.024 C 516.04 261.152 434.279 196.562 339.858 181.915 Z " fill="rgb(236,91,92)"/><path d=" M 234.197 284.504 C 230.934 284.504 227.92 285.075 225.239 286.202 C 222.548 287.332 220.209 288.88 218.284 290.803 C 216.358 292.729 214.806 295.045 213.675 297.685 C 212.553 300.303 211.985 303.218 211.985 306.349 C 211.985 309.49 212.556 312.441 213.683 315.123 C 214.813 317.816 216.362 320.155 218.284 322.077 C 220.209 324.001 222.548 325.549 225.238 326.678 C 227.92 327.805 230.934 328.377 234.197 328.377 C 237.464 328.377 240.515 327.803 243.264 326.671 C 246.01 325.54 248.405 323.964 250.384 321.986 C 252.358 320.011 253.903 317.68 254.972 315.059 C 256.047 312.427 256.591 309.496 256.591 306.349 C 256.591 303.204 256.047 300.273 254.971 297.637 C 253.907 295.031 252.373 292.74 250.412 290.83 C 248.426 288.9 246.02 287.345 243.264 286.21 C 240.515 285.078 237.464 284.504 234.197 284.504 Z  M 232.364 349.556 C 225.882 349.556 219.97 348.394 214.792 346.102 C 209.63 343.817 205.18 340.693 201.569 336.816 C 197.958 332.946 195.165 328.328 193.269 323.093 C 191.391 317.92 190.439 312.347 190.439 306.532 C 190.439 300.198 191.528 294.313 193.676 289.04 C 195.829 283.757 198.847 279.15 202.648 275.35 C 206.449 271.549 210.994 268.561 216.159 266.468 C 221.313 264.382 226.95 263.325 232.914 263.325 C 236.969 263.325 240.676 263.83 243.93 264.826 C 247.135 265.807 249.94 267.013 252.268 268.41 C 253.866 269.369 255.313 270.421 256.591 271.553 L 256.591 199.555 L 278.136 199.555 L 278.136 347.723 L 256.591 347.723 L 256.591 341.577 C 254.994 342.848 253.176 344.051 251.176 345.162 C 248.778 346.495 245.988 347.574 242.884 348.367 C 239.792 349.156 236.253 349.556 232.364 349.556 Z " fill="rgb(255,255,255)"/><path d=" M 309.142 349.373 C 304.065 349.373 299.019 348.483 294.144 346.728 C 289.118 344.919 284.988 342.212 281.87 338.684 L 280.069 336.645 L 281.993 334.723 C 282.758 333.956 283.631 332.939 284.587 331.701 C 285.645 330.333 286.721 329.002 287.789 327.747 L 290.35 324.729 C 291.311 323.591 292.22 322.513 293.749 322.513 L 296.643 324.041 C 296.67 324.059 296.699 324.078 296.727 324.097 C 297.515 324.624 298.58 325.196 299.9 325.799 C 301.236 326.413 302.775 326.981 304.476 327.491 C 306.031 327.957 307.6 328.194 309.142 328.194 C 311.483 328.194 313.394 327.647 314.987 326.524 C 316.294 325.602 316.877 324.521 316.877 323.024 C 316.877 321.723 316.459 320.816 315.52 320.086 C 314.061 318.951 312.194 317.868 309.971 316.867 C 307.599 315.801 304.927 314.678 302.029 313.528 C 298.873 312.28 295.934 310.644 293.295 308.664 C 290.566 306.618 288.249 304.028 286.413 300.966 C 284.497 297.775 283.527 293.667 283.527 288.757 C 283.527 284.134 284.415 280.155 286.168 276.931 C 287.887 273.766 290.134 271.138 292.847 269.12 C 295.511 267.14 298.519 265.687 301.787 264.801 C 304.957 263.943 308.048 263.508 310.975 263.508 C 314.839 263.508 318.995 264.307 323.326 265.881 C 327.733 267.484 331.54 269.868 334.642 272.967 L 336.418 274.741 L 324.692 290.377 L 322.403 288.149 C 322.234 288.019 321.918 287.804 321.461 287.498 C 320.889 287.118 320.093 286.71 319.103 286.292 C 318.063 285.856 316.819 285.433 315.413 285.038 C 314.148 284.685 312.837 284.504 311.525 284.504 C 309.876 284.504 308.281 284.889 306.648 285.681 C 305.925 286.031 305.256 286.625 305.256 288.574 C 305.256 290.063 305.734 291.181 306.758 292.092 C 308.199 293.373 310.035 294.547 312.214 295.581 C 314.618 296.724 317.261 297.909 320.077 299.105 C 323.131 300.407 326.002 302.024 328.614 303.913 C 331.35 305.899 333.667 308.389 335.505 311.315 C 337.442 314.399 338.423 318.277 338.423 322.841 C 338.423 330.475 335.746 336.885 330.465 341.892 C 325.231 346.855 318.056 349.373 309.142 349.373 Z " fill="rgb(255,255,255)"/><path d=" M 380.607 284.504 C 377.344 284.504 374.33 285.075 371.649 286.202 C 368.958 287.332 366.618 288.88 364.694 290.803 C 362.768 292.729 361.216 295.045 360.085 297.685 C 358.963 300.303 358.395 303.218 358.395 306.349 C 358.395 309.49 358.966 312.441 360.093 315.123 C 361.223 317.816 362.772 320.155 364.694 322.077 C 366.618 324.001 368.957 325.549 371.648 326.678 C 374.33 327.805 377.344 328.377 380.607 328.377 C 383.874 328.377 386.925 327.803 389.674 326.671 C 392.42 325.54 394.815 323.964 396.794 321.986 C 398.768 320.011 400.313 317.68 401.382 315.059 C 402.457 312.427 403.001 309.496 403.001 306.349 C 403.001 303.204 402.457 300.273 401.381 297.637 C 400.317 295.031 398.783 292.74 396.822 290.83 C 394.836 288.9 392.43 287.345 389.674 286.21 C 386.925 285.078 383.874 284.504 380.607 284.504 Z  M 380.24 384.556 C 375.615 384.556 371.39 384.061 367.684 383.087 C 364.015 382.121 360.614 380.844 357.576 379.292 C 354.545 377.745 351.719 375.904 349.178 373.822 C 346.746 371.825 344.339 369.763 342.028 367.693 L 339.809 365.707 L 353.915 350.833 L 356.013 352.796 C 359.585 356.139 363.285 358.824 367.014 360.775 C 370.546 362.623 374.874 363.56 379.874 363.56 C 387.304 363.56 393.08 361.824 397.039 358.4 C 400.941 355.022 402.892 350.386 403.001 344.229 L 403.001 341.258 C 401.552 342.507 399.941 343.651 398.19 344.672 C 395.789 346.073 392.981 347.246 389.844 348.159 C 386.657 349.086 383.055 349.556 379.14 349.556 C 373.028 349.556 367.336 348.426 362.225 346.2 C 357.14 343.984 352.642 340.907 348.857 337.054 C 345.061 333.197 342.079 328.626 339.992 323.468 C 337.907 318.322 336.849 312.685 336.849 306.715 C 336.849 300.608 337.973 294.837 340.19 289.56 C 342.398 284.298 345.438 279.676 349.224 275.825 C 353.009 271.976 357.505 268.9 362.59 266.682 C 367.704 264.454 373.21 263.325 378.958 263.325 C 383.408 263.325 387.45 263.931 390.974 265.128 C 394.437 266.304 397.406 267.71 399.803 269.308 C 401.201 270.24 402.445 271.177 403.525 272.11 C 403.664 270.762 403.734 269.463 403.734 268.233 L 403.734 265.34 L 424.546 265.34 L 424.546 341.349 C 424.546 354.815 420.483 365.508 412.469 373.131 C 404.493 380.712 393.649 384.556 380.24 384.556 Z " fill="rgb(255,255,255)"/></g></g></svg>